{
.appVersion = "3151";
.formatVersion = 3;
customParameters = (
{
name = vendorID;
value = GOOG;
},
{
name = panose;
value = (
2,
2,
6,
0,
0,
0,
0,
0,
0,
0
);
},
{
name = unicodeRanges;
value = (
0,
1,
7,
29,
36,
42,
43,
44,
45,
48,
49,
50,
51,
52,
54,
55,
57,
59,
61,
65,
66,
68
);
},
{
name = codePageRanges;
value = (
"1252",
"1250",
"1251",
"1258",
"932",
"936",
"bit 29",
"bit 30"
);
},
{
name = fsType;
value = (
);
},
{
name = ROS;
value = "Adobe-Identity-0";
}
);
date = "2017-05-01 11:21:50 +0000";
familyName = "Yaku Han MP";
featurePrefixes = (
{
automatic = 1;
code = "languagesystem DFLT dflt;
";
name = Languagesystems;
}
);
features = (
{
automatic = 1;
code = "feature vert;
feature vrt2;
";
tag = aalt;
},
{
code = "sub comma-han by comma-han.vert;
sub period-han by period-han.vert;
sub colon.full by colon.full.vert;
sub blacklenticularbracketleft by blacklenticularbracketleft.vert;
sub blacklenticularbracketright by blacklenticularbracketright.vert;
sub cornerbracketleft by cornerbracketleft.vert;
sub cornerbracketright by cornerbracketright.vert;
sub dblanglebracketleft by dblanglebracketleft.vert;
sub dblanglebracketright by dblanglebracketright.vert;
sub tortoiseshellbracketleft by tortoiseshellbracketleft.vert;
sub tortoiseshellbracketright by tortoiseshellbracketright.vert;
sub whitecornerbracketleft by whitecornerbracketleft.vert;
sub whitecornerbracketright by whitecornerbracketright.vert;
sub whitelenticularbracketleft by whitelenticularbracketleft.vert;
sub whitelenticularbracketright by whitelenticularbracketright.vert;
sub braceleft.full by braceleft.full.vert;
sub braceright.full by braceright.full.vert;
sub bracketleft.full by bracketleft.full.vert;
sub bracketright.full by bracketright.full.vert;
sub parenleft.full by parenleft.full.vert;
sub parenright.full by parenright.full.vert;
sub angleLeft by anglebracketleft.vert;
sub angleRight by anglebracketright.vert;";
tag = vert;
},
{
automatic = 1;
code = "sub comma-han by comma-han.vert;

glyphs = (
{
glyphname = .notdef;
layers = (
{
hints = (
{
horizontal = 1;
place = (-120, 50);
place = (-120, 50);
type = Stem;
},
{
horizontal = 1;
place = (830, 50);
place = (830, 50);
type = Stem;
},
{
place = (100, 50);
place = (100, 50);
type = Stem;
},
{
place = (850, 50);
place = (850, 50);
type = Stem;
},
{
horizontal = 1;
place = (789, 91);
place = (789, 91);
type = Stem;
}
);
layerId = m01;
shapes = (
{
closed = 1;
nodes = (
(100,-120,l),
(900,-120,l),
(900,880,l),
(100,880,l)
);
},
{
closed = 1;
nodes = (
(500,421,l),
(182,830,l),
(818,830,l)
);
},
{
closed = 1;
nodes = (
(532,380,l),
(850,789,l),
(850,-29,l)
);
},
{
closed = 1;
nodes = (
(182,-70,l),
(500,339,l),
(818,-70,l)
);
},
{
closed = 1;
nodes = (
(150,789,l),
(468,380,l),
(150,-29,l)
);
}
);
vertWidth = 1000;
width = 1000;
}
);
note = ".notdef";
},
{
glyphname = "comma-han";
kernLeft = "comma-han";
layers = (
{
hints = (
{
horizontal = 1;
place = (-79, 255);
place = (-79, 255);
type = Stem;
},
{
place = (35, 265);
place = (35, 265);
type = Stem;
}
);
layerId = m01;
shapes = (
{
closed = 1;
nodes = (
(35,162,l),
(125,94,o),
(159,26,o),
(188,-35,cs),
(203,-66,o),
(220,-79,o),
(245,-79,cs),
(278,-79,o),
(300,-56,o),
(300,-21,cs),
(300,0,o),
(295,21,o),
(278,46,cs),
(242,98,o),
(174,147,o),
(45,176,c)
);
}
);
vertWidth = 1000;
width = 1000;
}
);
note = cid01397;
unicode = 12289;
},
{
glyphname = "comma-han.vert";
kernBottom = comma.full.vert;
layers = (
{
hints = (
{
horizontal = 1;
place = (588, 253);
place = (588, 253);
type = Stem;
},
{
place = (682, 263);
place = (682, 263);
type = Stem;
}
);
layerId = m01;
shapes = (
{
closed = 1;
nodes = (
(682,827,l),
(771,759,o),
(804,691,o),
(833,632,cs),
(847,601,o),
(864,588,o),
(890,588,cs),
(923,588,o),
(945,611,o),
(945,646,cs),
(945,667,o),
(941,688,o),
(924,712,cs),
(888,764,o),
(820,813,o),
(692,841,c)
);
}
);
vertWidth = 1000;
width = 1000;
}
);
note = cid59877;
unicode = 65041;
},
{
glyphname = "period-han";
kernLeft = "comma-han";
layers = (
{
hints = (
{
horizontal = 1;
place = (-83, 36);
place = (-83, 36);
type = Stem;
},
{
horizontal = 1;
place = (164, 36);
place = (164, 36);
type = Stem;
},
{
place = (41, 36);
place = (41, 36);
type = Stem;
},
{
place = (288, 36);
place = (288, 36);
type = Stem;
}
);
layerId = m01;
shapes = (
{
closed = 1;
nodes = (
(261,-83,o),
(324,-19,o),
(324,59,cs),
(324,137,o),
(261,200,o),
(183,200,cs),
(105,200,o),
(41,137,o),
(41,59,cs),
(41,-19,o),
(105,-83,o),
(183,-83,cs)
);
},
{
closed = 1;
nodes = (
(241,164,o),
(288,117,o),
(288,59,cs),
(288,1,o),
(241,-47,o),
(183,-47,cs),
(124,-47,o),
(77,1,o),
(77,59,cs),
(77,117,o),
(124,164,o),
(183,164,cs)
);
}
);
vertWidth = 1000;
width = 1000;
}
);
note = cid01398;
unicode = 12290;
},
{
glyphname = "period-han.vert";
kernBottom = comma.full.vert;
layers = (
{
hints = (
{
horizontal = 1;
place = (542, 35);
place = (542, 35);
type = Stem;
},
{
horizontal = 1;
place = (786, 36);
place = (786, 36);
type = Stem;
},
{
place = (683, 36);
place = (683, 36);
type = Stem;
},
{
place = (928, 35);
place = (928, 35);
type = Stem;
}
);
layerId = m01;
shapes = (
{
closed = 1;
nodes = (
(901,542,o),
(963,605,o),
(963,682,cs),
(963,759,o),
(901,822,o),
(824,822,cs),
(747,822,o),
(683,759,o),
(683,682,cs),
(683,605,o),
(747,542,o),
(824,542,cs)
);
},
{
closed = 1;
nodes = (
(881,786,o),
(928,740,o),
(928,682,cs),
(928,625,o),
(881,577,o),
(824,577,cs),
(765,577,o),
(719,625,o),
(719,682,cs),
(719,740,o),
(765,786,o),
(824,786,cs)
);
}
);
vertWidth = 1000;
width = 1000;
}
);
note = cid59878;
unicode = 65042;
},
{
glyphname = "dot-kata";
layers = (
{
hints = (
{
horizontal = 1;
place = (277, 206);
place = (277, 206);
type = Stem;
},
{
place = (397, 206);
place = (397, 206);
type = Stem;
}
);
layerId = m01;
shapes = (
{
closed = 1;
nodes = (
(603,437,o),
(557,483,o),
(500,483,cs),
(443,483,o),
(397,437,o),
(397,380,cs),
(397,323,o),
(443,277,o),
(500,277,cs),
(557,277,o),
(603,323,o),
(603,380,cs)
);
}
);
vertWidth = 1000;
width = 1000;
}
);
note = cid01644;
unicode = 12539;
},
{
glyphname = colon.full;
layers = (
{
hints = (
{
horizontal = 1;
place = (35, 155);
place = (35, 155);
type = Stem;
},
{
horizontal = 1;
place = (507, 155);
place = (507, 155);
type = Stem;
},
{
place = (422, 155);
place = (422, 155);
type = Stem;
}
);
layerId = m01;
shapes = (
{
closed = 1;
nodes = (
(422,69,o),
(456,35,o),
(499,35,cs),
(543,35,o),
(577,69,o),
(577,112,cs),
(577,155,o),
(543,190,o),
(499,190,cs),
(456,190,o),
(422,155,o),
(422,112,cs)
);
},
{
closed = 1;
nodes = (
(422,542,o),
(456,507,o),
(499,507,cs),
(543,507,o),
(577,542,o),
(577,584,cs),
(577,627,o),
(543,662,o),
(499,662,cs),
(456,662,o),
(422,627,o),
(422,584,cs)
);
}
);
vertWidth = 1000;
width = 1000;
}
);
note = cid59969;
unicode = 65306;
},
{
glyphname = exclam.full;
layers = (
{
hints = (
{
horizontal = 1;
place = (-13, 144);
place = (-13, 144);
type = Stem;
},
{
place = (427, 146);
place = (427, 146);
type = Stem;
},
{
place = (432, 136);
place = (432, 136);
type = Stem;
}
);
layerId = m01;
shapes = (
{
closed = 1;
nodes = (
(542,-13,o),
(573,19,o),
(573,59,cs),
(573,98,o),
(542,131,o),
(500,131,cs),
(457,131,o),
(427,98,o),
(427,59,cs),
(427,19,o),
(457,-13,o),
(500,-13,cs)
);
},
{
closed = 1;
nodes = (
(460,767,o),
(432,742,o),
(432,687,cs),
(432,634,o),
(440,550,o),
(466,369,cs),
(482,223,l),
(518,223,l),
(534,369,ls),
(560,549,o),
(568,634,o),
(568,687,cs),
(568,742,o),
(540,767,o),
(500,767,cs)
);
}
);
vertWidth = 1000;
width = 1000;
}
);
note = cid59944;
unicode = 65281;
},
{
glyphname = question.full;
layers = (
{
hints = (
{
horizontal = 1;
place = (-13, 142);
place = (-13, 142);
type = Stem;
},
{
horizontal = 1;
place = (728, 39);
place = (728, 39);
type = Stem;
},
{
place = (387, 144);
place = (387, 144);
type = Stem;
},
{
place = (617, 107);
place = (617, 107);
type = Stem;
},
{
place = (429, 48.5);
place = (429, 48.5);
type = Stem;
}
);
layerId = m01;
shapes = (
{
closed = 1;
nodes = (
(417,129,o),
(387,97,o),
(387,58,cs),
(387,19,o),
(417,-13,o),
(459,-13,cs),
(501,-13,o),
(531,19,o),
(531,58,cs),
(531,97,o),
(501,129,o),
(459,129,cs)
);
},
{
closed = 1;
nodes = (
(391,716,l),
(416,725,o),
(436,728,o),
(464,728,cs),
(553,728,o),
(617,690,o),
(617,600,cs),
(617,534,o),
(585,493,o),
(518,441,cs),
(451,387,o),
(429,360,o),
(429,315,cs),
(429,288,o),
(433,249,o),
(439,214,c),
(475,214,l),
(480,280,ls),
(485,332,o),
(509,351,o),
(582,396,cs),
(683,459,o),
(724,514,o),
(724,593,cs),
(724,695,o),
(645,767,o),
(490,767,cs),
(356,767,o),
(256,698,o),
(246,583,c),
(258,562,o),
(277,553,o),
(298,553,cs),
(335,553,o),
(356,574,o),
(369,631,cs)
);
}
);
vertWidth = 1000;
width = 1000;
}
);
note = cid59974;
unicode = 65311;
},
{
glyphname = semicolon.full;
layers = (
{
hints = (
{
horizontal = 1;
place = (507, 155);
place = (507, 155);
type = Stem;
},
{
place = (518, 59);
place = (518, 59);
type = Stem;
},
{
place = (420, 157);
place = (420, 157);
type = Stem;
},
{
place = (422, 155);
place = (422, 155);
type = Stem;
}
);
layerId = m01;
shapes = (
{
closed = 1;
nodes = (
(427,-104,l),
(539,-55,o),
(577,48,o),
(577,132,cs),
(577,192,o),
(543,230,o),
(495,230,cs),
(448,230,o),
(420,196,o),
(420,159,cs),
(420,99,o),
(477,79,o),
(518,65,c),
(513,23,o),
(487,-37,o),
(411,-75,c)
);
},
{
closed = 1;
nodes = (
(422,542,o),
(456,507,o),
(499,507,cs),
(543,507,o),
(577,542,o),
(577,584,cs),
(577,627,o),
(543,662,o),
(499,662,cs),
(456,662,o),
(422,627,o),
(422,584,cs)
);
}
);
vertWidth = 1000;
width = 1000;
}
);
note = cid59970;
unicode = 65307;
},
{
glyphname = colon.full.vert;
lastChange = "2023-08-27 06:04:27 +0000";
layers = (
{
hints = (
{
horizontal = 1;
place = (303, 155);
place = (303, 155);
type = Stem;
},
{
place = (187, 155);
place = (187, 155);
type = Stem;
},
{
place = (659, 155);
place = (659, 155);
type = Stem;
}
);
layerId = m01;
shapes = (
{
closed = 1;
nodes = (
(659,337,o),
(695,303,o),
(738,303,cs),
(780,303,o),
(814,337,o),
(814,380,cs),
(814,424,o),
(780,458,o),
(738,458,cs),
(695,458,o),
(659,424,o),
(659,380,cs)
);
},
{
closed = 1;
nodes = (
(187,337,o),
(222,303,o),
(265,303,cs),
(307,303,o),
(342,337,o),
(342,380,cs),
(342,424,o),
(307,458,o),
(265,458,cs),
(222,458,o),
(187,424,o),
(187,380,cs)
);
}
);
vertWidth = 1000;
width = 1000;
}
);
note = cid64716;
},
{
glyphname = angleLeft;
layers = (
{
hints = (
{
horizontal = 1;
place = (-91, 942);
place = (-91, 942);
type = Stem;
},
{
place = (531, 437);
place = (531, 437);
type = Stem;
}
);
layerId = m01;
shapes = (
{
closed = 1;
nodes = (
(968,825,l),
(938,851,l),
(531,380,l),
(938,-91,l),
(968,-65,l),
(584,380,l)
);
}
);
vertWidth = 1000;
width = 1000;
}
);
note = cid01404;
unicode = (9001,12296);
},
{
glyphname = angleRight;
layers = (
{
hints = (
{
horizontal = 1;
place = (-91, 942);
place = (-91, 942);
type = Stem;
},
{
place = (32, 437);
place = (32, 437);
type = Stem;
}
);
layerId = m01;
shapes = (
{
closed = 1;
nodes = (
(32,-65,l),
(62,-91,l),
(469,380,l),
(62,851,l),
(32,825,l),
(416,380,l)
);
}
);
vertWidth = 1000;
width = 1000;
}
);
note = cid01405;
unicode = (9002,12297);
},
{
glyphname = blacklenticularbracketleft;
layers = (
{
hints = (
{
horizontal = 1;
place = (-88, 17);
place = (-88, 17);
type = Stem;
},
{
horizontal = 1;
place = (831, 17);
place = (831, 17);
type = Stem;
},
{
place = (625, 80);
place = (625, 80);
type = Stem;
}
);
layerId = m01;
shapes = (
{
closed = 1;
nodes = (
(968,-71,l),
(810,2,o),
(705,157,o),
(705,380,cs),
(705,603,o),
(810,758,o),
(968,831,c),
(968,848,l),
(625,848,l),
(625,-88,l),
(968,-88,l)
);
}
);
vertWidth = 1000;
width = 1000;
}
);
note = cid01412;
unicode = 12304;
},
{
glyphname = blacklenticularbracketright;
layers = (
{
hints = (
{
horizontal = 1;
place = (-88, 17);
place = (-88, 17);
type = Stem;
},
{
horizontal = 1;
place = (831, 17);
place = (831, 17);
type = Stem;
},
{
place = (295, 80);
place = (295, 80);
type = Stem;
}
);
layerId = m01;
shapes = (
{
closed = 1;
nodes = (
(32,-88,l),
(375,-88,l),
(375,848,l),
(32,848,l),
(32,831,l),
(190,758,o),
(295,603,o),
(295,380,cs),
(295,157,o),
(190,2,o),
(32,-71,c)
);
}
);
vertWidth = 1000;
width = 1000;
}
);
note = cid01413;
unicode = 12305;
},
{
glyphname = braceleft.full;
layers = (
{
hints = (
{
horizontal = 1;
place = (-112, 42);
place = (-112, 42);
type = Stem;
},
{
horizontal = 1;
place = (830, 43);
place = (830, 43);
type = Stem;
},
{
place = (700, 96);
place = (700, 96);
type = Stem;
},
{
place = (732, 76);
place = (732, 76);
type = Stem;
}
);
layerId = m01;
shapes = (
{
closed = 1;
nodes = (
(973,831,l),
(973,873,l),
(925,873,ls),
(780,873,o),
(700,823,o),
(700,729,cs),
(700,643,o),
(732,566,o),
(732,503,cs),
(732,450,o),
(699,420,o),
(577,400,c),
(577,361,l),
(700,340,o),
(732,310,o),
(732,258,cs),
(732,194,o),
(700,117,o),
(700,32,cs),
(700,-63,o),
(780,-112,o),
(925,-112,cs),
(973,-112,l),
(973,-72,l),
(924,-68,ls),
(831,-62,o),
(796,-28,o),
(796,40,cs),
(796,110,o),
(808,177,o),
(808,241,cs),
(808,304,o),
(769,358,o),
(676,380,c),
(769,403,o),
(808,456,o),
(808,520,cs),
(808,583,o),
(796,648,o),
(796,722,cs),
(796,789,o),
(831,824,o),
(924,829,cs)
);
}
);
vertWidth = 1000;
width = 1000;
}
);
note = cid60034;
unicode = 65371;
},
{
glyphname = braceright.full;
layers = (
{
hints = (
{
horizontal = 1;
place = (-113, 43);
place = (-113, 43);
type = Stem;
},
{
horizontal = 1;
place = (830, 42);
place = (830, 42);
type = Stem;
},
{
place = (204, 96);
place = (204, 96);
type = Stem;
},
{
place = (192, 76);
place = (192, 76);
type = Stem;
}
);
layerId = m01;
shapes = (
{
closed = 1;
nodes = (
(423,399,l),
(300,420,o),
(268,450,o),
(268,502,cs),
(268,566,o),
(300,643,o),
(300,728,cs),
(300,823,o),
(220,872,o),
(75,872,cs),
(27,872,l),
(27,832,l),
(76,828,ls),
(169,822,o),
(204,788,o),
(204,720,cs),
(204,650,o),
(192,583,o),
(192,519,cs),
(192,456,o),
(231,402,o),
(324,380,c),
(231,357,o),
(192,304,o),
(192,240,cs),
(192,177,o),
(204,112,o),
(204,38,cs),
(204,-29,o),
(169,-64,o),
(76,-69,cs),
(27,-71,l),
(27,-113,l),
(75,-113,ls),
(220,-113,o),
(300,-63,o),
(300,31,cs),
(300,117,o),
(268,194,o),
(268,257,cs),
(268,310,o),
(301,340,o),
(423,360,c)
);
}
);
vertWidth = 1000;
width = 1000;
}
);
note = cid60036;
unicode = 65373;
},
{
glyphname = cornerbracketleft;
layers = (
{
hints = (
{
horizontal = 1;
place = (810, 38);
place = (810, 38);
type = Stem;
},
{
place = (652, 40);
place = (652, 40);
type = Stem;
}
);
layerId = m01;
shapes = (
{
closed = 1;
nodes = (
(652,203,l),
(692,203,l),
(692,810,l),
(968,810,l),
(968,848,l),
(652,848,l)
);
}
);
vertWidth = 1000;
width = 1000;
}
);
note = cid01408;
unicode = 12300;
},
{
glyphname = cornerbracketright;
layers = (
{
hints = (
{
horizontal = 1;
place = (-88, 38);
place = (-88, 38);
type = Stem;
},
{
place = (308, 40);
place = (308, 40);
type = Stem;
}
);
layerId = m01;
shapes = (
{
closed = 1;
nodes = (
(348,557,l),
(308,557,l),
(308,-50,l),
(32,-50,l),
(32,-88,l),
(348,-88,l)
);
}
);
vertWidth = 1000;
width = 1000;
}
);
note = cid01409;
unicode = 12301;
},
{
glyphname = dblanglebracketleft;
layers = (
{
hints = (
{
horizontal = 1;
place = (-91, 942);
place = (-91, 942);
type = Stem;
},
{
place = (525, 442);
place = (525, 442);
type = Stem;
}
);
layerId = m01;
shapes = (
{
closed = 1;
nodes = (
(565,380,l),
(824,833,l),
(795,851,l),
(525,380,l),
(795,-91,l),
(824,-73,l)
);
},
{
closed = 1;
nodes = (
(708,380,l),
(967,833,l),
(938,851,l),
(668,380,l),
(938,-91,l),
(967,-73,l)
);
}
);
vertWidth = 1000;
width = 1000;
}
);
note = cid01406;
unicode = 12298;
},
{
glyphname = dblanglebracketright;
layers = (
{
hints = (
{
horizontal = 1;
place = (-91, 942);
place = (-91, 942);
type = Stem;
},
{
place = (33, 442);
place = (33, 442);
type = Stem;
}
);
layerId = m01;
shapes = (
{
closed = 1;
nodes = (
(205,-91,l),
(475,380,l),
(205,851,l),
(176,833,l),
(435,380,l),
(176,-73,l)
);
},
{
closed = 1;
nodes = (
(62,-91,l),
(332,380,l),
(62,851,l),
(33,833,l),
(292,380,l),
(33,-73,l)
);
}
);
vertWidth = 1000;
width = 1000;
}
);
note = cid01407;
unicode = 12299;
},
{
glyphname = tortoiseshellbracketleft;
layers = (
{
hints = (
{
horizontal = 1;
place = (-91, 942);
place = (-91, 942);
type = Stem;
},
{
place = (718, 39);
place = (718, 39);
type = Stem;
}
);
layerId = m01;
shapes = (
{
closed = 1;
nodes = (
(950,-91,l),
(967,-57,l),
(757,41,l),
(757,719,l),
(967,817,l),
(950,851,l),
(718,742,l),
(718,18,l)
);
}
);
vertWidth = 1000;
width = 1000;
}
);
note = cid01416;
unicode = 12308;
},
{
glyphname = tortoiseshellbracketright;
layers = (
{
hints = (
{
horizontal = 1;
place = (-91, 942);
place = (-91, 942);
type = Stem;
},
{
place = (243, 39);
place = (243, 39);
type = Stem;
}
);
layerId = m01;
shapes = (
{
closed = 1;
nodes = (
(50,-91,l),
(282,18,l),
(282,742,l),
(50,851,l),
(33,817,l),
(243,718,l),
(243,42,l),
(33,-57,l)
);
}
);
vertWidth = 1000;
width = 1000;
}
);
note = cid01417;
unicode = 12309;
},
{
glyphname = whitecornerbracketleft;
layers = (
{
hints = (
{
horizontal = 1;
place = (197, 28);
place = (197, 28);
type = Stem;
},
{
horizontal = 1;
place = (702, 28);
place = (702, 28);
type = Stem;
},
{
horizontal = 1;
place = (820, 28);
place = (820, 28);
type = Stem;
},
{
place = (614, 28);
place = (614, 28);
type = Stem;
},
{
place = (736, 28);
place = (736, 28);
type = Stem;
},
{
place = (940, 28);
place = (940, 28);
type = Stem;
}
);
layerId = m01;
shapes = (
{
closed = 1;
nodes = (
(968,702,l),
(968,848,l),
(614,848,l),
(614,197,l),
(764,197,l),
(764,702,l)
);
},
{
closed = 1;
nodes = (
(940,820,l),
(940,730,l),
(736,730,l),
(736,225,l),
(642,225,l),
(642,820,l)
);
}
);
vertWidth = 1000;
width = 1000;
}
);
note = cid01410;
unicode = 12302;
},
{
glyphname = whitecornerbracketright;
layers = (
{
hints = (
{
horizontal = 1;
place = (-88, 28);
place = (-88, 28);
type = Stem;
},
{
horizontal = 1;
place = (30, 28);
place = (30, 28);
type = Stem;
},
{
horizontal = 1;
place = (535, 28);
place = (535, 28);
type = Stem;
},
{
place = (32, 28);
place = (32, 28);
type = Stem;
},
{
place = (236, 28);
place = (236, 28);
type = Stem;
},
{
place = (358, 28);
place = (358, 28);
type = Stem;
}
);
layerId = m01;
shapes = (
{
closed = 1;
nodes = (
(32,58,l),
(32,-88,l),
(386,-88,l),
(386,563,l),
(236,563,l),
(236,58,l)
);
},
{
closed = 1;
nodes = (
(60,-60,l),
(60,30,l),
(264,30,l),
(264,535,l),
(358,535,l),
(358,-60,l)
);
}
);
vertWidth = 1000;
width = 1000;
}
);
note = cid01411;
unicode = 12303;
},
{
glyphname = whitelenticularbracketleft;
layers = (
{
hints = (
{
horizontal = 1;
place = (-88, 28);
place = (-88, 28);
type = Stem;
},
{
horizontal = 1;
place = (820, 28);
place = (820, 28);
type = Stem;
},
{
place = (618, 28);
place = (618, 28);
type = Stem;
},
{
place = (678, 28);
place = (678, 28);
type = Stem;
},
{
horizontal = 1;
place = (827, 21);
place = (827, 21);
type = Stem;
}
);
layerId = m01;
shapes = (
{
closed = 1;
nodes = (
(968,-67,l),
(814,0,o),
(706,157,o),
(706,380,cs),
(706,603,o),
(814,760,o),
(968,827,c),
(968,848,l),
(618,848,l),
(618,-88,l),
(968,-88,l)
);
},
{
closed = 1;
nodes = (
(646,-60,l),
(646,820,l),
(896,820,l),
(808,765,o),
(678,633,o),
(678,380,cs),
(678,127,o),
(808,-5,o),
(896,-60,c)
);
}
);
vertWidth = 1000;
width = 1000;
}
);
note = cid01418;
unicode = 12310;
},
{
glyphname = whitelenticularbracketright;
layers = (
{
hints = (
{
horizontal = 1;
place = (-88, 28);
place = (-88, 28);
type = Stem;
},
{
horizontal = 1;
place = (820, 28);
place = (820, 28);
type = Stem;
},
{
place = (294, 28);
place = (294, 28);
type = Stem;
},
{
place = (354, 28);
place = (354, 28);
type = Stem;
},
{
horizontal = 1;
place = (827, 21);
place = (827, 21);
type = Stem;
}
);
layerId = m01;
shapes = (
{
closed = 1;
nodes = (
(382,-88,l),
(382,848,l),
(33,848,l),
(33,827,l),
(186,760,o),
(294,603,o),
(294,380,cs),
(294,157,o),
(186,0,o),
(33,-67,c),
(33,-88,l)
);
},
{
closed = 1;
nodes = (
(322,633,o),
(193,765,o),
(105,820,c),
(354,820,l),
(354,-60,l),
(105,-60,l),
(193,-5,o),
(322,127,o),
(322,380,cs)
);
}
);
vertWidth = 1000;
width = 1000;
}
);
note = cid01419;
unicode = 12311;
},
{
glyphname = anglebracketleft.vert;
layers = (
{
hints = (
{
horizontal = 1;
place = (-88, 437);
place = (-88, 437);
type = Stem;
},
{
place = (29, 942);
place = (29, 942);
type = Stem;
}
);
layerId = m01;
shapes = (
{
closed = 1;
nodes = (
(945,-88,l),
(971,-58,l),
(500,349,l),
(29,-58,l),
(55,-88,l),
(500,296,l)
);
}
);
vertWidth = 1000;
width = 1000;
}
);
note = cid59901;
unicode = 65087;
},
{
glyphname = anglebracketright.vert;
layers = (
{
hints = (
{
horizontal = 1;
place = (411, 437);
place = (411, 437);
type = Stem;
},
{
place = (29, 942);
place = (29, 942);
type = Stem;
}
);
layerId = m01;
shapes = (
{
closed = 1;
nodes = (
(55,848,l),
(29,818,l),
(500,411,l),
(971,818,l),
(945,848,l),
(500,464,l)
);
}
);
vertWidth = 1000;
width = 1000;
}
);
note = cid59902;
unicode = 65088;
},
{
glyphname = blacklenticularbracketleft.vert;
layers = (
{
hints = (
{
horizontal = 1;
place = (175, 80);
place = (175, 80);
type = Stem;
},
{
place = (32, 17);
place = (32, 17);
type = Stem;
},
{
place = (951, 17);
place = (951, 17);
type = Stem;
}
);
layerId = m01;
shapes = (
{
closed = 1;
nodes = (
(49,-88,l),
(122,70,o),
(277,175,o),
(500,175,cs),
(723,175,o),
(878,70,o),
(951,-88,c),
(968,-88,l),
(968,255,l),
(32,255,l),
(32,-88,l)
);
}
);
vertWidth = 1000;
width = 1000;
}
);
note = cid59897;
unicode = 65083;
},
{
glyphname = blacklenticularbracketright.vert;
layers = (
{
hints = (
{
horizontal = 1;
place = (505, 80);
place = (505, 80);
type = Stem;
},
{
place = (32, 17);
place = (32, 17);
type = Stem;
},
{
place = (951, 17);
place = (951, 17);
type = Stem;
}
);
layerId = m01;
shapes = (
{
closed = 1;
nodes = (
(951,848,l),
(878,690,o),
(723,585,o),
(500,585,cs),
(277,585,o),
(122,690,o),
(49,848,c),
(32,848,l),
(32,505,l),
(968,505,l),
(968,848,l)
);
}
);
vertWidth = 1000;
width = 1000;
}
);
note = cid59898;
unicode = 65084;
},
{
glyphname = bracketleft.full;
layers = (
{
hints = (
{
horizontal = 1;
place = (-88, 38);
place = (-88, 38);
type = Stem;
},
{
horizontal = 1;
place = (810, 38);
place = (810, 38);
type = Stem;
},
{
place = (718, 39);
place = (718, 39);
type = Stem;
}
);
layerId = m01;
shapes = (
{
closed = 1;
nodes = (
(718,-88,l),
(968,-88,l),
(968,-50,l),
(757,-50,l),
(757,810,l),
(968,810,l),
(968,848,l),
(718,848,l)
);
}
);
vertWidth = 1000;
width = 1000;
}
);
note = cid60002;
unicode = 65339;
},
{
glyphname = bracketright.full;
layers = (
{
hints = (
{
horizontal = 1;
place = (-88, 38);
place = (-88, 38);
type = Stem;
},
{
horizontal = 1;
place = (810, 38);
place = (810, 38);
type = Stem;
},
{
place = (243, 39);
place = (243, 39);
type = Stem;
}
);
layerId = m01;
shapes = (
{
closed = 1;
nodes = (
(282,-88,l),
(282,848,l),
(32,848,l),
(32,810,l),
(243,810,l),
(243,-50,l),
(32,-50,l),
(32,-88,l)
);
}
);
vertWidth = 1000;
width = 1000;
}
);
note = cid60004;
unicode = 65341;
},
{
glyphname = cornerbracketleft.vert;
layers = (
{
hints = (
{
horizontal = 1;
place = (190, 38);
place = (190, 38);
type = Stem;
},
{
place = (935, 40);
place = (935, 40);
type = Stem;
}
);
layerId = m01;
shapes = (
{
closed = 1;
nodes = (
(273,228,l),
(273,190,l),
(935,190,l),
(935,-88,l),
(975,-88,l),
(975,228,l)
);
}
);
vertWidth = 1000;
width = 1000;
}
);
note = cid59903;
unicode = 65089;
},
{
glyphname = cornerbracketright.vert;
layers = (
{
hints = (
{
horizontal = 1;
place = (522, 38);
place = (522, 38);
type = Stem;
},
{
place = (25, 40);
place = (25, 40);
type = Stem;
}
);
layerId = m01;
shapes = (
{
closed = 1;
nodes = (
(727,522,l),
(727,560,l),
(65,560,l),
(65,837,l),
(25,837,l),
(25,522,l)
);
}
);
vertWidth = 1000;
width = 1000;
}
);
note = cid59904;
unicode = 65090;
},
{
glyphname = dblanglebracketleft.vert;
layers = (
{
hints = (
{
horizontal = 1;
place = (-87, 442);
place = (-87, 442);
type = Stem;
},
{
place = (29, 942);
place = (29, 942);
type = Stem;
}
);
layerId = m01;
shapes = (
{
closed = 1;
nodes = (
(500,315,l),
(953,56,l),
(971,85,l),
(500,355,l),
(29,85,l),
(47,56,l)
);
},
{
closed = 1;
nodes = (
(500,172,l),
(953,-87,l),
(971,-58,l),
(500,212,l),
(29,-58,l),
(47,-87,l)
);
}
);
vertWidth = 1000;
width = 1000;
}
);
note = cid59899;
unicode = 65085;
},
{
glyphname = dblanglebracketright.vert;
layers = (
{
hints = (
{
horizontal = 1;
place = (405, 442);
place = (405, 442);
type = Stem;
},
{
place = (29, 942);
place = (29, 942);
type = Stem;
}
);
layerId = m01;
shapes = (
{
closed = 1;
nodes = (
(29,675,l),
(500,405,l),
(971,675,l),
(953,704,l),
(500,445,l),
(47,704,l)
);
},
{
closed = 1;
nodes = (
(29,818,l),
(500,548,l),
(971,818,l),
(953,847,l),
(500,588,l),
(47,847,l)
);
}
);
vertWidth = 1000;
width = 1000;
}
);
note = cid59900;
unicode = 65086;
},
{
glyphname = parenleft.full;
layers = (
{
hints = (
{
horizontal = 1;
place = (-91, 942);
place = (-91, 942);
type = Stem;
},
{
place = (646, 83);
place = (646, 83);
type = Stem;
}
);
layerId = m01;
shapes = (
{
closed = 1;
nodes = (
(646,138,o),
(783,-4,o),
(924,-91,c),
(940,-72,l),
(825,24,o),
(729,165,o),
(729,380,cs),
(729,595,o),
(825,736,o),
(940,832,c),
(924,851,l),
(783,764,o),
(646,622,o),
(646,380,cs)
);
}
);
vertWidth = 1000;
width = 1000;
}
);
note = cid59951;
unicode = 65288;
},
{
glyphname = parenright.full;
layers = (
{
hints = (
{
horizontal = 1;
place = (-91, 942);
place = (-91, 942);
type = Stem;
},
{
place = (271, 83);
place = (271, 83);
type = Stem;
}
);
layerId = m01;
shapes = (
{
closed = 1;
nodes = (
(60,832,l),
(175,736,o),
(271,595,o),
(271,380,cs),
(271,165,o),
(175,24,o),
(60,-72,c),
(76,-91,l),
(217,-4,o),
(354,138,o),
(354,380,cs),
(354,622,o),
(217,764,o),
(76,851,c)
);
}
);
vertWidth = 1000;
width = 1000;
}
);
note = cid59952;
unicode = 65289;
},
{
glyphname = tortoiseshellbracketleft.vert;
layers = (
{
hints = (
{
horizontal = 1;
place = (124, 38);
place = (124, 38);
type = Stem;
},
{
place = (29, 942);
place = (29, 942);
type = Stem;
}
);
layerId = m01;
shapes = (
{
closed = 1;
nodes = (
(138,162,l),
(29,-70,l),
(63,-88,l),
(163,124,l),
(837,124,l),
(937,-88,l),
(971,-70,l),
(862,162,l)
);
}
);
vertWidth = 1000;
width = 1000;
}
);
note = cid59895;
unicode = 65081;
},
{
glyphname = tortoiseshellbracketright.vert;
layers = (
{
hints = (
{
horizontal = 1;
place = (598, 38);
place = (598, 38);
type = Stem;
},
{
place = (29, 942);
place = (29, 942);
type = Stem;
}
);
layerId = m01;
shapes = (
{
closed = 1;
nodes = (
(971,830,l),
(937,848,l),
(837,636,l),
(163,636,l),
(63,848,l),
(29,830,l),
(138,598,l),
(862,598,l)
);
}
);
vertWidth = 1000;
width = 1000;
}
);
note = cid59896;
unicode = 65082;
},
{
glyphname = whitecornerbracketleft.vert;
layers = (
{
hints = (
{
horizontal = 1;
place = (-88, 28);
place = (-88, 28);
type = Stem;
},
{
horizontal = 1;
place = (111, 28);
place = (111, 28);
type = Stem;
},
{
horizontal = 1;
place = (229, 28);
place = (229, 28);
type = Stem;
},
{
place = (317, 28);
place = (317, 28);
type = Stem;
},
{
place = (818, 28);
place = (818, 28);
type = Stem;
},
{
place = (940, 28);
place = (940, 28);
type = Stem;
}
);
layerId = m01;
shapes = (
{
closed = 1;
nodes = (
(818,-88,l),
(968,-88,l),
(968,257,l),
(317,257,l),
(317,111,l),
(818,111,l)
);
},
{
closed = 1;
nodes = (
(940,-60,l),
(846,-60,l),
(846,139,l),
(345,139,l),
(345,229,l),
(940,229,l)
);
}
);
vertWidth = 1000;
width = 1000;
}
);
note = cid59905;
unicode = 65091;
},
{
glyphname = whitecornerbracketright.vert;
layers = (
{
hints = (
{
horizontal = 1;
place = (503, 28);
place = (503, 28);
type = Stem;
},
{
horizontal = 1;
place = (621, 28);
place = (621, 28);
type = Stem;
},
{
horizontal = 1;
place = (820, 28);
place = (820, 28);
type = Stem;
},
{
place = (32, 28);
place = (32, 28);
type = Stem;
},
{
place = (154, 28);
place = (154, 28);
type = Stem;
},
{
place = (655, 28);
place = (655, 28);
type = Stem;
}
);
layerId = m01;
shapes = (
{
closed = 1;
nodes = (
(182,848,l),
(32,848,l),
(32,503,l),
(683,503,l),
(683,649,l),
(182,649,l)
);
},
{
closed = 1;
nodes = (
(60,820,l),
(154,820,l),
(154,621,l),
(655,621,l),
(655,531,l),
(60,531,l)
);
}
);
vertWidth = 1000;
width = 1000;
}
);
note = cid59906;
unicode = 65092;
},
{
glyphname = whitelenticularbracketleft.vert;
layers = (
{
hints = (
{
horizontal = 1;
place = (174, 28);
place = (174, 28);
type = Stem;
},
{
horizontal = 1;
place = (234, 28);
place = (234, 28);
type = Stem;
},
{
place = (32, 28);
place = (32, 28);
type = Stem;
},
{
place = (940, 28);
place = (940, 28);
type = Stem;
}
);
layerId = m01;
shapes = (
{
closed = 1;
nodes = (
(53,-88,l),
(120,66,o),
(277,174,o),
(500,174,cs),
(723,174,o),
(880,66,o),
(947,-88,c),
(968,-88,l),
(968,262,l),
(32,262,l),
(32,-88,l)
);
},
{
closed = 1;
nodes = (
(60,234,l),
(940,234,l),
(940,-16,l),
(885,72,o),
(753,202,o),
(500,202,cs),
(247,202,o),
(115,72,o),
(60,-16,c)
);
}
);
vertWidth = 1000;
width = 1000;
}
);
note = cid59883;
unicode = 65047;
},
{
glyphname = whitelenticularbracketright.vert;
layers = (
{
hints = (
{
horizontal = 1;
place = (505, 28);
place = (505, 28);
type = Stem;
},
{
horizontal = 1;
place = (565, 28);
place = (565, 28);
type = Stem;
},
{
place = (32, 28);
place = (32, 28);
type = Stem;
},
{
place = (940, 28);
place = (940, 28);
type = Stem;
}
);
layerId = m01;
shapes = (
{
closed = 1;
nodes = (
(32,505,l),
(968,505,l),
(968,854,l),
(947,854,l),
(880,701,o),
(723,593,o),
(500,593,cs),
(277,593,o),
(120,701,o),
(53,854,c),
(32,854,l)
);
},
{
closed = 1;
nodes = (
(753,565,o),
(885,694,o),
(940,782,c),
(940,533,l),
(60,533,l),
(60,782,l),
(115,694,o),
(247,565,o),
(500,565,cs)
);
}
);
vertWidth = 1000;
width = 1000;
}
);
note = cid59884;
unicode = 65048;
},
{
glyphname = braceleft.full.vert;
layers = (
{
hints = (
{
horizontal = 1;
place = (52, 96);
place = (52, 96);
type = Stem;
},
{
place = (7, 43);
place = (7, 43);
type = Stem;
},
{
place = (950, 43);
place = (950, 43);
type = Stem;
},
{
horizontal = 1;
place = (36, 76);
place = (36, 76);
type = Stem;
}
);
layerId = m01;
shapes = (
{
closed = 1;
nodes = (
(480,266,l),
(460,145,o),
(430,112,o),
(378,112,cs),
(314,112,o),
(237,148,o),
(152,148,cs),
(57,148,o),
(7,69,o),
(7,-76,cs),
(7,-121,l),
(48,-121,l),
(52,-75,ls),
(58,18,o),
(91,52,o),
(159,52,cs),
(231,52,o),
(296,36,o),
(361,36,cs),
(424,36,o),
(478,75,o),
(500,168,c),
(523,75,o),
(576,36,o),
(640,36,cs),
(703,36,o),
(769,52,o),
(841,52,cs),
(909,52,o),
(943,18,o),
(949,-75,cs),
(951,-121,l),
(993,-121,l),
(993,-76,ls),
(993,69,o),
(943,148,o),
(848,148,cs),
(763,148,o),
(686,112,o),
(622,112,cs),
(570,112,o),
(540,144,o),
(520,266,c)
);
}
);
vertWidth = 1000;
width = 1000;
}
);
note = cid59893;
unicode = 65079;
},
{
glyphname = braceright.full.vert;
layers = (
{
hints = (
{
horizontal = 1;
place = (608, 97);
place = (608, 97);
type = Stem;
},
{
place = (7, 43);
place = (7, 43);
type = Stem;
},
{
place = (950.5, 42.5);
place = (950.5, 42.5);
type = Stem;
},
{
horizontal = 1;
place = (645, 76);
place = (645, 76);
type = Stem;
}
);
layerId = m01;
shapes = (
{
closed = 1;
nodes = (
(952,877,l),
(949,832,ls),
(943,739,o),
(909,705,o),
(841,705,cs),
(769,705,o),
(703,721,o),
(640,721,cs),
(576,721,o),
(523,682,o),
(500,588,c),
(478,682,o),
(424,721,o),
(361,721,cs),
(297,721,o),
(231,705,o),
(159,705,cs),
(91,705,o),
(58,739,o),
(52,832,cs),
(48,877,l),
(7,877,l),
(7,832,ls),
(7,688,o),
(57,608,o),
(152,608,cs),
(237,608,o),
(314,645,o),
(378,645,cs),
(430,645,o),
(460,612,o),
(480,491,c),
(520,491,l),
(540,612,o),
(570,645,o),
(622,645,cs),
(686,645,o),
(763,608,o),
(848,608,cs),
(943,608,o),
(993,688,o),
(993,832,cs),
(993,877,l)
);
}
);
vertWidth = 1000;
width = 1000;
}
);
note = cid59894;
unicode = 65080;
},
{
glyphname = bracketleft.full.vert;
layers = (
{
hints = (
{
horizontal = 1;
place = (125, 37);
place = (125, 37);
type = Stem;
},
{
place = (32, 40);
place = (32, 40);
type = Stem;
},
{
place = (928, 40);
place = (928, 40);
type = Stem;
}
);
layerId = m01;
shapes = (
{
closed = 1;
nodes = (
(32,162,l),
(32,-88,l),
(72,-88,l),
(72,125,l),
(928,125,l),
(928,-88,l),
(968,-88,l),
(968,162,l)
);
}
);
vertWidth = 1000;
width = 1000;
}
);
note = cid59909;
unicode = 65095;
},
{
glyphname = bracketright.full.vert;
layers = (
{
hints = (
{
horizontal = 1;
place = (598, 37);
place = (598, 37);
type = Stem;
},
{
place = (32, 40);
place = (32, 40);
type = Stem;
},
{
place = (928, 40);
place = (928, 40);
type = Stem;
}
);
layerId = m01;
shapes = (
{
closed = 1;
nodes = (
(968,598,l),
(968,848,l),
(928,848,l),
(928,635,l),
(72,635,l),
(72,848,l),
(32,848,l),
(32,598,l)
);
}
);
vertWidth = 1000;
width = 1000;
}
);
note = cid59910;
unicode = 65096;
},
{
glyphname = parenleft.full.vert;
layers = (
{
hints = (
{
horizontal = 1;
place = (152, 83);
place = (152, 83);
type = Stem;
},
{
place = (29, 942);
place = (29, 942);
type = Stem;
}
);
layerId = m01;
shapes = (
{
closed = 1;
nodes = (
(258,235,o),
(116,98,o),
(29,-43,c),
(48,-59,l),
(144,56,o),
(285,152,o),
(500,152,cs),
(715,152,o),
(856,56,o),
(952,-59,c),
(971,-43,l),
(884,98,o),
(742,235,o),
(500,235,cs)
);
}
);
vertWidth = 1000;
width = 1000;
}
);
note = cid59891;
unicode = 65077;
},
